<svg xmlns="http://www.w3.org/2000/svg" version="1.1" xmlns:xlink="http://www.w3.org/1999/xlink" width="1000" height="1000"><style>
    #light-icon {
      display: inline;
    }
    #dark-icon {
      display: none;
    }

    @media (prefers-color-scheme: dark) {
      #light-icon {
        display: none;
      }
      #dark-icon {
        display: inline;
      }
    }
  </style><g id="light-icon"><svg xmlns="http://www.w3.org/2000/svg" version="1.1" xmlns:xlink="http://www.w3.org/1999/xlink" width="1000" height="1000"><g clip-path="url(#SvgjsClipPath1047)"><rect width="1000" height="1000" fill="#ffffff"></rect><g transform="matrix(1.0256410256410255,0,0,1.0256410256410255,5.684341886080802e-14,5.684341886080802e-14)"><svg xmlns="http://www.w3.org/2000/svg" version="1.1" xmlns:xlink="http://www.w3.org/1999/xlink" width="975" height="975"><svg version="1.2" xmlns="http://www.w3.org/2000/svg" viewBox="552 63 975 975" width="975" height="975">
	<title>Gemini_Generated_Image_v0fgorv0fgorv0fg</title>
	<style>
		.s0 { fill: #000000 } 
	</style>
	<g>
		<path class="s0" d="m824.2 317.7c-5.1 2.5-9 6.9-10.3 11.6-0.7 2.3-1.5 4.5-1.8 4.9-0.3 0.3-6 1.6-12.6 2.7-31.2 5.5-61.2 16.6-85.7 31.8-36.5 22.6-63.9 52.2-84.7 91.5l-7.2 13.6-5.3-0.1c-7.1-0.1-13.9 3.9-17.3 10.2-4.9 9.4-1.9 22.2 6.3 26.8l4 2.2-1.8 8.8c-8.7 43.1-1.6 96.2 18.6 138.8 11.4 23.9 27.2 46.2 46 65 17.4 17.3 38.9 32.9 59.8 43.6 17.9 9.1 46.5 18.8 66.1 22.4 5.3 1 9.7 2.3 9.7 2.9 0 3.3 2.5 9.1 5.3 12.3 4.1 4.6 8.2 6.3 15.6 6.3 8.1 0 14.4-4.1 18.4-12.1l2.8-5.6 9.7-0.6c37.5-2.3 79.8-15.5 118.3-36.8 5.8-3.3 10.9-5.9 11.2-5.9 0.4 0 0.8 5 0.9 11.1 0.3 9.4 0.6 11.4 2.1 12.3 1.2 0.8 2.2 0.8 3.5 0 1.6-1 1.7-5.2 2-61.1l0.2-59.9 3.5-1.7c5.4-2.6 7.7-7 7.2-13.9-0.4-6.2-2.5-9.6-7.9-12.4-4.2-2.2-11-1.8-14.8 0.8-9.3 6.4-9 19.3 0.6 25l3.4 2v43.2c0 40-0.1 43.4-1.7 44.8-1 0.8-7 4.4-13.3 7.8-39.6 21.8-73.6 32.5-116 36.5l-6.5 0.6 6.9-4.1c19.5-11.5 36.3-27.6 66.9-64.3 9.8-11.7 14.5-16.6 15.6-16.2 2.9 0.8 15.5 2.5 19.8 2.5 7.6 0 7.3 2.2 7.3-46.5 0-39.8-0.1-43.4-1.7-45.3-2.3-2.6-33.4-14.9-65.3-25.9-13.4-4.6-24.6-8.6-24.9-8.8-0.2-0.3 35.4-0.5 79.2-0.5h79.7l0.2 98.1c0.3 92.3 0.4 98.2 2.1 99.3 1.2 0.8 2.2 0.8 3.5 0 1.5-1 1.8-3.5 2.2-21.8l0.5-20.7 4 9.7c2.2 5.4 6.3 15.2 9 21.8l5 12.1h3.5 3.5l0.5-139.3 0.5-139.3 7.4 13.8c4.1 7.6 8.7 15.8 10.1 18.3 1.5 2.5 5.3 9.1 8.4 14.7l5.8 10.3-3 3.5c-7.7 8.7-4.4 24.3 6.3 29.9 2.8 1.5 5.9 2.1 10.3 2.1h6.2l7.3 13.5c4 7.4 22.2 40.7 40.3 74 18.2 33.3 37.7 69.2 43.5 79.9 10.2 19.1 12.7 22.2 16.3 20.8 1.7-0.7 2.1-1.5 19.2-33 9.9-18.4 13.2-23.6 14.4-23.1 0.8 0.4 3.6 0.9 6.2 1.1 7 0.8 14.9-3.3 18.5-9.4 4.8-8.3 2.9-20.5-4.2-26.1-1.4-1.1-2.5-2.3-2.5-2.6 0-0.3 8.3-16 18.4-34.8 10.1-18.9 22.3-41.7 27.1-50.8 27.8-52.4 55.4-102 56.6-102 0.5 0 0.9 25.5 0.9 60.1v60.2l-3.9 4.2c-5.1 5.5-6 10.6-3.3 16.8 1.1 2.5 3.2 5.3 4.6 6.2l2.6 1.7v63.3c0 55.6 0.2 63.4 1.5 64.5 1.2 1 2.1 1 4 0.2l2.5-1.2 0.2-62.7 0.3-62.8 2.7-0.3c5.5-0.6 21.3 21.2 33.2 45.9 10.3 21.4 19 46.3 26.6 76.6 0.8 3.3 1.7 4.4 3.5 4.9 5.8 1.4 5.5 5.2 5.5-81.5 0-43.8 0.3-81.2 0.6-83.2 0.5-3 1.3-3.8 5.5-5.8 7.4-3.4 10.4-8.4 10.4-17.6 0-9.4-2.9-14.1-11.1-18.1l-5.6-2.7 0.3-94.9c0.4-83.5 0.2-95-1.1-95.8-0.9-0.6-22.2-1-52.7-1h-51.3l-1.4 2.2c-0.8 1.3-11.8 22.3-24.4 46.8-12.7 24.5-26.5 51.1-30.8 59.3l-7.8 14.7-4.8-0.6c-6.4-0.9-12.6 1.5-17.2 6.6-7.1 7.9-7.3 18.7-0.3 26.7l3.2 3.6-5.9 11.1c-6.2 11.8-41.6 76.9-42.1 77.4-0.1 0.2-3.8-6.1-8.1-14-4.3-7.9-13.4-24.2-20.2-36.3-6.9-12.1-15.6-27.7-19.5-34.8l-6.9-12.7 4-4.4c2.5-2.7 4.3-5.8 4.8-8.1 3-16-9.3-27.8-25.4-24.5-2.2 0.5-3-0.7-8.8-11.5-7.8-14.3-32.5-61.5-44.4-84.5l-8.5-16.5-50.5-0.5c-27.8-0.3-51.3-0.2-52.2 0.3-1.7 0.7-1.8 6.6-2 97.5l-0.3 96.7-62.7 0.3-62.6 0.2-2.6-4.5c-6.5-11.1-21.1-13.4-30.6-4.9-10.8 9.8-8.6 27 4.3 33 2.9 1.3 6.8 2.4 8.7 2.4 5.6 0 13.5-4.3 16.5-8.9l2.7-4 4.5 1.4c13.5 4.1 55.3 18.8 72.3 25.6l19.5 7.7 0.3 39.4 0.2 39.5-2.2-0.3c-1.3-0.2-4.4-0.6-6.9-0.9-3.6-0.5-4.9-1.1-5.7-3-1.7-3.6-4.1-3.2-16.6 3-17.1 8.3-33.9 13.8-52.6 17.2-11.8 2.1-47.4 2.4-59.5 0.5-11-1.8-29-6.6-38.3-10.3-18.4-7.3-44.1-23.4-42.6-26.8 5.5-13.4-2-25.1-15.6-23.8l-5.6 0.5-5.2-7.8c-10.3-15.3-17.8-32.7-21.7-50.5-2.2-9.8-3.1-36.9-1.6-49.1 2.6-20.7 8.9-39.9 18.6-56.3 7-11.9 13.5-20 23.6-29.5 28.6-26.9 65.5-40.8 107.9-40.8 35.5 0.1 65.4 8.6 98.6 28.2 5 2.9 5.2 3 7.2 1.3 1.1-1 4.9-7.2 8.5-13.8 3.5-6.6 11.5-21.1 17.6-32.3 6.6-11.9 11.1-21.2 10.9-22.4-0.6-3.8-33.2-21.4-54.3-29.3-14.2-5.3-41.7-12-57.7-14.1l-13.7-1.8-1-4.2c-2.9-11.5-17.2-18-27.9-12.7zm-12.2 26.1c0 1.2-9.8 10.4-34 31.8-34.3 30.4-29.9 27.3-38.4 26.7l-7.3-0.6-4.1 3.7c-4.6 4.2-6.7 9.2-5.8 14.1 0.6 3.2 0.4 3.4-6.1 7.7-9.6 6.3-25.6 15-41.1 22.4-15.9 7.6-28.9 14.9-37.2 21-3.3 2.4-6.3 4.4-6.6 4.4-0.8 0 9.9-19.9 16.2-30 7.5-12.1 20.4-27.8 32.6-39.6 31.9-31 72.9-51.5 120.8-60.4 11.8-2.2 11-2.2 11-1.2zm83.6 6.7c18 4.7 30 8.8 42.4 14.7 12.6 5.9 31 16 31 17 0 0.4-3.5 7.2-7.8 15-4.4 7.9-10 18.2-12.6 23-2.6 4.9-4.8 8.8-5 8.8-0.2 0-2.4-3.5-4.9-7.9-11-18.9-31.8-38.8-79.2-75.5l-3-2.4 13 2c7.2 1 18.9 3.4 26.1 5.3zm-43.1 0.3c8 4.9 41.8 32.9 56.8 47.1 9.4 8.9 19.9 22.1 24.3 30.7 5.4 10.6 4.6 11.1-6.6 4.7-16.7-9.4-41.9-17.8-64.5-21.5-11.4-1.8-42.6-1.5-54.5 0.5-32.5 5.6-58.7 17.6-81.5 37.4-29.5 25.7-46.1 59.9-49.5 101.8-2.2 28.2 2.7 56.1 14 78.6l4.1 8.1-5.2-4.3c-12.2-10.2-37.1-40-47.6-57-11.4-18.3-21.8-43.8-23-56.2l-0.6-6.3 4.1-1.2c11.1-3.4 17.2-16.1 12.8-26.7l-1.5-3.5 10.5-6.9c5.7-3.8 22.5-13.1 37.4-20.6 14.8-7.5 31.2-16.5 36.3-19.9l9.4-6.2 3.9 1.9c7.3 3.3 16.5 0.4 20-6.6 1.2-2.2 1.5-4.7 1.1-9.3l-0.5-6.2 21.1-18.3c11.6-10.1 26.4-23.5 32.9-29.8 11.1-10.6 12-11.3 13.6-9.8 2.9 2.6 8.8 4.7 13.4 4.7 4.7 0 11.5-2.7 13.7-5.3 1.7-2.1 1.9-2.1 5.6 0.1zm208.2 41.9c4.9 5.4 21.4 24.2 36.8 41.8 15.4 17.6 31.2 35.4 35.2 39.6 8.4 8.8 14.8 18.6 13.3 20.4-0.7 0.9-7.6-0.5-27.4-5.5-14.5-3.8-29.6-7.3-33.4-8-6.4-1.2-7.2-1.6-8.3-4.3-1.5-3.6-6.3-6.7-10.5-6.7-2.9 0-4-1.5-21.6-27.8-17.4-26-26.9-39.5-37.4-53.5l-4.4-5.7h24.4 24.5zm46.4 25.2c9.9 18.9 17.8 34.5 17.6 34.7-0.1 0.2-5.4-5.6-11.7-12.9-6.3-7.2-19.9-22.7-30.2-34.3-10.4-11.7-18.8-21.5-18.8-21.9 0-0.3 5.7-0.4 12.6-0.3l12.6 0.3zm342.7-33.4c0.1 0.1-4.5 6.7-10.3 14.6-11 15.1-33.4 46.6-44.9 63.1-7.4 10.7-8.4 11.7-9.7 9.7-1.5-2.3-9.6-27.7-12.3-38.4-4.6-18.7-9.2-47.4-7.9-49.8 0.4-0.7 84.3 0.1 85.1 0.8zm-436 27.3c7.1 10.3 16.2 23.6 20.2 29.7 4 6 10.9 16.1 15.2 22.3 6.6 9.4 7.7 11.5 6.8 13.1-2.2 4.1-0.8 10 3.2 13.1 1.8 1.5 1.9 4.8 2.5 131.8 0.3 71.6 0.3 130.2-0.1 130.2-0.3 0-1.1-1-1.6-2.3-0.5-1.2-4.1-9.9-8.2-19.2l-7.3-17-0.5-71.5-0.5-71.5-22.7-0.3-22.8-0.2v-89.6c0-78.8 0.2-89.5 1.5-88.4 0.8 0.6 7.2 9.6 14.3 19.8zm442.2 68.2c0 86.1 0 88-1.9 89-1.7 0.9-2.8 0.1-7.8-5.7-7.4-8.6-39.3-51.1-46.7-62.2-3.7-5.5-5.4-9-5-10 1.3-3 1.6-8.9 0.5-11-1-1.8 0.1-4 9.2-17.3 5.7-8.4 16.1-23.2 23.1-32.8 7-9.6 16-22.1 19.9-27.7 4-5.6 7.5-10.2 8-10.2 0.4-0.1 0.7 39.5 0.7 87.9zm-97-70.4c2.5 14.3 7.6 34.1 13.5 52.4l4.5 13.6-2.1 4.2c-1.9 3.8-2 4.7-0.9 8.6l1.2 4.4-7.8 14.7-7.9 14.6-6-0.6c-3.3-0.4-14.2-1.8-24.2-3.1-10-1.3-18.6-2.4-19.2-2.4-0.6 0-2.1-2.1-3.4-4.8-1.3-2.6-2.9-5.6-3.6-6.7-1.1-1.8 1-6.4 18.9-41 28.6-55.3 34.4-66.4 34.7-66.1 0.2 0.1 1.2 5.6 2.3 12.2zm-273.3 79.9c3.7 0.8 17.9 4.3 31.6 7.7l24.7 6.3v3.9c0 5.2 3.3 11.9 7.7 15.5 3.5 2.9 11.6 5.7 13.3 4.6 1.1-0.7 3.1 2.6 36.7 63 8 14.3 15 26.6 15.5 27.2 0.6 0.7 0.7 1.3 0.4 1.3-0.4 0-9.1-4.7-19.4-10.3-10.3-5.7-28.3-15.3-39.9-21.3l-21.3-10.9v-5.6c0-11.8-8.4-20.3-20.2-20.4h-6l-7-12.5c-13.1-23.5-25.8-47.3-25.8-48.7 0-1.7 1.3-1.6 9.7 0.2zm314.4 26.2c7.9 11.7 21.2 29.5 35.6 47.4l9.3 11.7-2 4.3c-4.3 9.5-0.7 20.8 8.1 25.7l4.9 2.7-0.1 67v67l-4.8-13.5c-13.2-37.4-23.1-56.3-40.4-77.8l-6.7-8.2 1.2-4.4c2.1-8-2.9-17.5-10.2-19.1l-3-0.7v-56.4c0-31 0.2-56.4 0.5-56.4 0.2 0 3.7 4.8 7.6 10.7zm-66.7 11.8c11 1.4 20.2 2.7 20.4 3 0.3 0.2-3.1 7.1-7.5 15.2-4.4 8.1-10.4 19.3-13.3 24.8-3 5.5-12 22.2-20.1 37.1-8.1 14.9-19.1 35.5-24.4 45.8-5.4 10.3-9.8 18.6-10 18.4-0.1-0.2 0.8-11.8 2.1-25.8 2.8-30.6 7.4-92.1 7.4-99.5 0-7.2 0.6-8.3 5.1-9.5 4.5-1.2 10.3-6 12.5-10.2 1.4-2.6 2-2.9 4.7-2.4 1.8 0.3 12.2 1.7 23.1 3.1zm-708.6 34.9c5.1 10.8 17.5 30 28 43.6 10 12.8 32.7 35.5 44.6 44.5 7.4 5.6 10.4 8.4 10 9.5-0.4 0.8-0.9 3.6-1.1 6.1-0.9 8.5 5.6 16.5 14.1 17.3 3.4 0.3 3.6 0.5 11.6 16.5 14.4 28.5 31.4 51.3 51.5 69.2 4.4 3.9 10.2 8.7 13 10.5 5.5 3.8 4.7 4.1-4.7 1.9-61.8-14.3-113.8-50.8-145.7-102.3-14.4-23.2-24.3-49-29.8-77.2-2.1-11.2-2.6-17.3-3-36.2-0.3-12.5-0.2-24.4 0.2-26.4 0.6-3.7 0.7-3.7 3.6 4.7 1.6 4.6 5 12.9 7.7 18.3zm653.8 6.3c-3.4 46.2-6.8 87.4-8.4 100.8-1.7 13.7-1.8 14-4.2 14.3-2.8 0.3-1.3 2.5-20.6-30.4-6.8-11.6-12.4-21.6-12.4-22.3 0-0.7 5.7-11.7 12.7-24.4 21.4-39 26.2-47.9 30.1-55.5 2-4.1 3.8-6.7 4-5.8 0.2 0.9-0.4 11.4-1.2 23.3zm-130.8 23.5c25.3 13.2 63.2 33.7 70.3 38 6.5 4 6.6 4.2 17.5 22.6 22.2 37.8 20.9 35.2 19.6 37-5.1 7.1-6.3 18-2.6 24.3l2.1 3.5-6.2 10.9c-3.4 6.1-9.5 17.2-13.6 24.7l-7.5 13.6-7.4-13.6c-16.7-31.1-25.7-47.5-33.5-61.7-40.5-73.6-57.6-105.5-57-106.6 1-1.6 2.3-1.1 18.3 7.3zm-403.3 102.7c21.6 14.2 49.4 23.9 77 27.1 13.3 1.5 38.8 1.2 51.6-0.6 15-2 31.4-6.3 43.1-11.1l9.6-4-10.1 12.1c-26.6 31.8-47 50.6-65 59.7l-5.8 3-3.5-3c-6.8-6-16.9-6.4-24.3-1.1-2.2 1.7-4.5 3-5 3-2.3 0-22.4-16.3-32.2-26-10.7-10.6-22.8-26-29.5-37.3-5.6-9.5-14.6-26.7-14-26.7 0.3 0 3.9 2.2 8.1 4.9z"></path>
	</g>
</svg></svg></g></g><defs><clipPath id="SvgjsClipPath1047"><rect width="1000" height="1000" x="0" y="0" rx="350" ry="350"></rect></clipPath></defs></svg></g><g id="dark-icon"><svg xmlns="http://www.w3.org/2000/svg" version="1.1" xmlns:xlink="http://www.w3.org/1999/xlink" width="1000" height="1000"><g clip-path="url(#SvgjsClipPath1048)"><rect width="1000" height="1000" fill="#ffffff"></rect><g transform="matrix(1.0256410256410255,0,0,1.0256410256410255,5.684341886080802e-14,5.684341886080802e-14)"><svg xmlns="http://www.w3.org/2000/svg" version="1.1" xmlns:xlink="http://www.w3.org/1999/xlink" width="975" height="975"><svg version="1.2" xmlns="http://www.w3.org/2000/svg" viewBox="552 63 975 975" width="975" height="975">
	<title>Gemini_Generated_Image_v0fgorv0fgorv0fg</title>
	<style>
		.s0 { fill: #000000 } 
	</style>
	<g>
		<path class="s0" d="m824.2 317.7c-5.1 2.5-9 6.9-10.3 11.6-0.7 2.3-1.5 4.5-1.8 4.9-0.3 0.3-6 1.6-12.6 2.7-31.2 5.5-61.2 16.6-85.7 31.8-36.5 22.6-63.9 52.2-84.7 91.5l-7.2 13.6-5.3-0.1c-7.1-0.1-13.9 3.9-17.3 10.2-4.9 9.4-1.9 22.2 6.3 26.8l4 2.2-1.8 8.8c-8.7 43.1-1.6 96.2 18.6 138.8 11.4 23.9 27.2 46.2 46 65 17.4 17.3 38.9 32.9 59.8 43.6 17.9 9.1 46.5 18.8 66.1 22.4 5.3 1 9.7 2.3 9.7 2.9 0 3.3 2.5 9.1 5.3 12.3 4.1 4.6 8.2 6.3 15.6 6.3 8.1 0 14.4-4.1 18.4-12.1l2.8-5.6 9.7-0.6c37.5-2.3 79.8-15.5 118.3-36.8 5.8-3.3 10.9-5.9 11.2-5.9 0.4 0 0.8 5 0.9 11.1 0.3 9.4 0.6 11.4 2.1 12.3 1.2 0.8 2.2 0.8 3.5 0 1.6-1 1.7-5.2 2-61.1l0.2-59.9 3.5-1.7c5.4-2.6 7.7-7 7.2-13.9-0.4-6.2-2.5-9.6-7.9-12.4-4.2-2.2-11-1.8-14.8 0.8-9.3 6.4-9 19.3 0.6 25l3.4 2v43.2c0 40-0.1 43.4-1.7 44.8-1 0.8-7 4.4-13.3 7.8-39.6 21.8-73.6 32.5-116 36.5l-6.5 0.6 6.9-4.1c19.5-11.5 36.3-27.6 66.9-64.3 9.8-11.7 14.5-16.6 15.6-16.2 2.9 0.8 15.5 2.5 19.8 2.5 7.6 0 7.3 2.2 7.3-46.5 0-39.8-0.1-43.4-1.7-45.3-2.3-2.6-33.4-14.9-65.3-25.9-13.4-4.6-24.6-8.6-24.9-8.8-0.2-0.3 35.4-0.5 79.2-0.5h79.7l0.2 98.1c0.3 92.3 0.4 98.2 2.1 99.3 1.2 0.8 2.2 0.8 3.5 0 1.5-1 1.8-3.5 2.2-21.8l0.5-20.7 4 9.7c2.2 5.4 6.3 15.2 9 21.8l5 12.1h3.5 3.5l0.5-139.3 0.5-139.3 7.4 13.8c4.1 7.6 8.7 15.8 10.1 18.3 1.5 2.5 5.3 9.1 8.4 14.7l5.8 10.3-3 3.5c-7.7 8.7-4.4 24.3 6.3 29.9 2.8 1.5 5.9 2.1 10.3 2.1h6.2l7.3 13.5c4 7.4 22.2 40.7 40.3 74 18.2 33.3 37.7 69.2 43.5 79.9 10.2 19.1 12.7 22.2 16.3 20.8 1.7-0.7 2.1-1.5 19.2-33 9.9-18.4 13.2-23.6 14.4-23.1 0.8 0.4 3.6 0.9 6.2 1.1 7 0.8 14.9-3.3 18.5-9.4 4.8-8.3 2.9-20.5-4.2-26.1-1.4-1.1-2.5-2.3-2.5-2.6 0-0.3 8.3-16 18.4-34.8 10.1-18.9 22.3-41.7 27.1-50.8 27.8-52.4 55.4-102 56.6-102 0.5 0 0.9 25.5 0.9 60.1v60.2l-3.9 4.2c-5.1 5.5-6 10.6-3.3 16.8 1.1 2.5 3.2 5.3 4.6 6.2l2.6 1.7v63.3c0 55.6 0.2 63.4 1.5 64.5 1.2 1 2.1 1 4 0.2l2.5-1.2 0.2-62.7 0.3-62.8 2.7-0.3c5.5-0.6 21.3 21.2 33.2 45.9 10.3 21.4 19 46.3 26.6 76.6 0.8 3.3 1.7 4.4 3.5 4.9 5.8 1.4 5.5 5.2 5.5-81.5 0-43.8 0.3-81.2 0.6-83.2 0.5-3 1.3-3.8 5.5-5.8 7.4-3.4 10.4-8.4 10.4-17.6 0-9.4-2.9-14.1-11.1-18.1l-5.6-2.7 0.3-94.9c0.4-83.5 0.2-95-1.1-95.8-0.9-0.6-22.2-1-52.7-1h-51.3l-1.4 2.2c-0.8 1.3-11.8 22.3-24.4 46.8-12.7 24.5-26.5 51.1-30.8 59.3l-7.8 14.7-4.8-0.6c-6.4-0.9-12.6 1.5-17.2 6.6-7.1 7.9-7.3 18.7-0.3 26.7l3.2 3.6-5.9 11.1c-6.2 11.8-41.6 76.9-42.1 77.4-0.1 0.2-3.8-6.1-8.1-14-4.3-7.9-13.4-24.2-20.2-36.3-6.9-12.1-15.6-27.7-19.5-34.8l-6.9-12.7 4-4.4c2.5-2.7 4.3-5.8 4.8-8.1 3-16-9.3-27.8-25.4-24.5-2.2 0.5-3-0.7-8.8-11.5-7.8-14.3-32.5-61.5-44.4-84.5l-8.5-16.5-50.5-0.5c-27.8-0.3-51.3-0.2-52.2 0.3-1.7 0.7-1.8 6.6-2 97.5l-0.3 96.7-62.7 0.3-62.6 0.2-2.6-4.5c-6.5-11.1-21.1-13.4-30.6-4.9-10.8 9.8-8.6 27 4.3 33 2.9 1.3 6.8 2.4 8.7 2.4 5.6 0 13.5-4.3 16.5-8.9l2.7-4 4.5 1.4c13.5 4.1 55.3 18.8 72.3 25.6l19.5 7.7 0.3 39.4 0.2 39.5-2.2-0.3c-1.3-0.2-4.4-0.6-6.9-0.9-3.6-0.5-4.9-1.1-5.7-3-1.7-3.6-4.1-3.2-16.6 3-17.1 8.3-33.9 13.8-52.6 17.2-11.8 2.1-47.4 2.4-59.5 0.5-11-1.8-29-6.6-38.3-10.3-18.4-7.3-44.1-23.4-42.6-26.8 5.5-13.4-2-25.1-15.6-23.8l-5.6 0.5-5.2-7.8c-10.3-15.3-17.8-32.7-21.7-50.5-2.2-9.8-3.1-36.9-1.6-49.1 2.6-20.7 8.9-39.9 18.6-56.3 7-11.9 13.5-20 23.6-29.5 28.6-26.9 65.5-40.8 107.9-40.8 35.5 0.1 65.4 8.6 98.6 28.2 5 2.9 5.2 3 7.2 1.3 1.1-1 4.9-7.2 8.5-13.8 3.5-6.6 11.5-21.1 17.6-32.3 6.6-11.9 11.1-21.2 10.9-22.4-0.6-3.8-33.2-21.4-54.3-29.3-14.2-5.3-41.7-12-57.7-14.1l-13.7-1.8-1-4.2c-2.9-11.5-17.2-18-27.9-12.7zm-12.2 26.1c0 1.2-9.8 10.4-34 31.8-34.3 30.4-29.9 27.3-38.4 26.7l-7.3-0.6-4.1 3.7c-4.6 4.2-6.7 9.2-5.8 14.1 0.6 3.2 0.4 3.4-6.1 7.7-9.6 6.3-25.6 15-41.1 22.4-15.9 7.6-28.9 14.9-37.2 21-3.3 2.4-6.3 4.4-6.6 4.4-0.8 0 9.9-19.9 16.2-30 7.5-12.1 20.4-27.8 32.6-39.6 31.9-31 72.9-51.5 120.8-60.4 11.8-2.2 11-2.2 11-1.2zm83.6 6.7c18 4.7 30 8.8 42.4 14.7 12.6 5.9 31 16 31 17 0 0.4-3.5 7.2-7.8 15-4.4 7.9-10 18.2-12.6 23-2.6 4.9-4.8 8.8-5 8.8-0.2 0-2.4-3.5-4.9-7.9-11-18.9-31.8-38.8-79.2-75.5l-3-2.4 13 2c7.2 1 18.9 3.4 26.1 5.3zm-43.1 0.3c8 4.9 41.8 32.9 56.8 47.1 9.4 8.9 19.9 22.1 24.3 30.7 5.4 10.6 4.6 11.1-6.6 4.7-16.7-9.4-41.9-17.8-64.5-21.5-11.4-1.8-42.6-1.5-54.5 0.5-32.5 5.6-58.7 17.6-81.5 37.4-29.5 25.7-46.1 59.9-49.5 101.8-2.2 28.2 2.7 56.1 14 78.6l4.1 8.1-5.2-4.3c-12.2-10.2-37.1-40-47.6-57-11.4-18.3-21.8-43.8-23-56.2l-0.6-6.3 4.1-1.2c11.1-3.4 17.2-16.1 12.8-26.7l-1.5-3.5 10.5-6.9c5.7-3.8 22.5-13.1 37.4-20.6 14.8-7.5 31.2-16.5 36.3-19.9l9.4-6.2 3.9 1.9c7.3 3.3 16.5 0.4 20-6.6 1.2-2.2 1.5-4.7 1.1-9.3l-0.5-6.2 21.1-18.3c11.6-10.1 26.4-23.5 32.9-29.8 11.1-10.6 12-11.3 13.6-9.8 2.9 2.6 8.8 4.7 13.4 4.7 4.7 0 11.5-2.7 13.7-5.3 1.7-2.1 1.9-2.1 5.6 0.1zm208.2 41.9c4.9 5.4 21.4 24.2 36.8 41.8 15.4 17.6 31.2 35.4 35.2 39.6 8.4 8.8 14.8 18.6 13.3 20.4-0.7 0.9-7.6-0.5-27.4-5.5-14.5-3.8-29.6-7.3-33.4-8-6.4-1.2-7.2-1.6-8.3-4.3-1.5-3.6-6.3-6.7-10.5-6.7-2.9 0-4-1.5-21.6-27.8-17.4-26-26.9-39.5-37.4-53.5l-4.4-5.7h24.4 24.5zm46.4 25.2c9.9 18.9 17.8 34.5 17.6 34.7-0.1 0.2-5.4-5.6-11.7-12.9-6.3-7.2-19.9-22.7-30.2-34.3-10.4-11.7-18.8-21.5-18.8-21.9 0-0.3 5.7-0.4 12.6-0.3l12.6 0.3zm342.7-33.4c0.1 0.1-4.5 6.7-10.3 14.6-11 15.1-33.4 46.6-44.9 63.1-7.4 10.7-8.4 11.7-9.7 9.7-1.5-2.3-9.6-27.7-12.3-38.4-4.6-18.7-9.2-47.4-7.9-49.8 0.4-0.7 84.3 0.1 85.1 0.8zm-436 27.3c7.1 10.3 16.2 23.6 20.2 29.7 4 6 10.9 16.1 15.2 22.3 6.6 9.4 7.7 11.5 6.8 13.1-2.2 4.1-0.8 10 3.2 13.1 1.8 1.5 1.9 4.8 2.5 131.8 0.3 71.6 0.3 130.2-0.1 130.2-0.3 0-1.1-1-1.6-2.3-0.5-1.2-4.1-9.9-8.2-19.2l-7.3-17-0.5-71.5-0.5-71.5-22.7-0.3-22.8-0.2v-89.6c0-78.8 0.2-89.5 1.5-88.4 0.8 0.6 7.2 9.6 14.3 19.8zm442.2 68.2c0 86.1 0 88-1.9 89-1.7 0.9-2.8 0.1-7.8-5.7-7.4-8.6-39.3-51.1-46.7-62.2-3.7-5.5-5.4-9-5-10 1.3-3 1.6-8.9 0.5-11-1-1.8 0.1-4 9.2-17.3 5.7-8.4 16.1-23.2 23.1-32.8 7-9.6 16-22.1 19.9-27.7 4-5.6 7.5-10.2 8-10.2 0.4-0.1 0.7 39.5 0.7 87.9zm-97-70.4c2.5 14.3 7.6 34.1 13.5 52.4l4.5 13.6-2.1 4.2c-1.9 3.8-2 4.7-0.9 8.6l1.2 4.4-7.8 14.7-7.9 14.6-6-0.6c-3.3-0.4-14.2-1.8-24.2-3.1-10-1.3-18.6-2.4-19.2-2.4-0.6 0-2.1-2.1-3.4-4.8-1.3-2.6-2.9-5.6-3.6-6.7-1.1-1.8 1-6.4 18.9-41 28.6-55.3 34.4-66.4 34.7-66.1 0.2 0.1 1.2 5.6 2.3 12.2zm-273.3 79.9c3.7 0.8 17.9 4.3 31.6 7.7l24.7 6.3v3.9c0 5.2 3.3 11.9 7.7 15.5 3.5 2.9 11.6 5.7 13.3 4.6 1.1-0.7 3.1 2.6 36.7 63 8 14.3 15 26.6 15.5 27.2 0.6 0.7 0.7 1.3 0.4 1.3-0.4 0-9.1-4.7-19.4-10.3-10.3-5.7-28.3-15.3-39.9-21.3l-21.3-10.9v-5.6c0-11.8-8.4-20.3-20.2-20.4h-6l-7-12.5c-13.1-23.5-25.8-47.3-25.8-48.7 0-1.7 1.3-1.6 9.7 0.2zm314.4 26.2c7.9 11.7 21.2 29.5 35.6 47.4l9.3 11.7-2 4.3c-4.3 9.5-0.7 20.8 8.1 25.7l4.9 2.7-0.1 67v67l-4.8-13.5c-13.2-37.4-23.1-56.3-40.4-77.8l-6.7-8.2 1.2-4.4c2.1-8-2.9-17.5-10.2-19.1l-3-0.7v-56.4c0-31 0.2-56.4 0.5-56.4 0.2 0 3.7 4.8 7.6 10.7zm-66.7 11.8c11 1.4 20.2 2.7 20.4 3 0.3 0.2-3.1 7.1-7.5 15.2-4.4 8.1-10.4 19.3-13.3 24.8-3 5.5-12 22.2-20.1 37.1-8.1 14.9-19.1 35.5-24.4 45.8-5.4 10.3-9.8 18.6-10 18.4-0.1-0.2 0.8-11.8 2.1-25.8 2.8-30.6 7.4-92.1 7.4-99.5 0-7.2 0.6-8.3 5.1-9.5 4.5-1.2 10.3-6 12.5-10.2 1.4-2.6 2-2.9 4.7-2.4 1.8 0.3 12.2 1.7 23.1 3.1zm-708.6 34.9c5.1 10.8 17.5 30 28 43.6 10 12.8 32.7 35.5 44.6 44.5 7.4 5.6 10.4 8.4 10 9.5-0.4 0.8-0.9 3.6-1.1 6.1-0.9 8.5 5.6 16.5 14.1 17.3 3.4 0.3 3.6 0.5 11.6 16.5 14.4 28.5 31.4 51.3 51.5 69.2 4.4 3.9 10.2 8.7 13 10.5 5.5 3.8 4.7 4.1-4.7 1.9-61.8-14.3-113.8-50.8-145.7-102.3-14.4-23.2-24.3-49-29.8-77.2-2.1-11.2-2.6-17.3-3-36.2-0.3-12.5-0.2-24.4 0.2-26.4 0.6-3.7 0.7-3.7 3.6 4.7 1.6 4.6 5 12.9 7.7 18.3zm653.8 6.3c-3.4 46.2-6.8 87.4-8.4 100.8-1.7 13.7-1.8 14-4.2 14.3-2.8 0.3-1.3 2.5-20.6-30.4-6.8-11.6-12.4-21.6-12.4-22.3 0-0.7 5.7-11.7 12.7-24.4 21.4-39 26.2-47.9 30.1-55.5 2-4.1 3.8-6.7 4-5.8 0.2 0.9-0.4 11.4-1.2 23.3zm-130.8 23.5c25.3 13.2 63.2 33.7 70.3 38 6.5 4 6.6 4.2 17.5 22.6 22.2 37.8 20.9 35.2 19.6 37-5.1 7.1-6.3 18-2.6 24.3l2.1 3.5-6.2 10.9c-3.4 6.1-9.5 17.2-13.6 24.7l-7.5 13.6-7.4-13.6c-16.7-31.1-25.7-47.5-33.5-61.7-40.5-73.6-57.6-105.5-57-106.6 1-1.6 2.3-1.1 18.3 7.3zm-403.3 102.7c21.6 14.2 49.4 23.9 77 27.1 13.3 1.5 38.8 1.2 51.6-0.6 15-2 31.4-6.3 43.1-11.1l9.6-4-10.1 12.1c-26.6 31.8-47 50.6-65 59.7l-5.8 3-3.5-3c-6.8-6-16.9-6.4-24.3-1.1-2.2 1.7-4.5 3-5 3-2.3 0-22.4-16.3-32.2-26-10.7-10.6-22.8-26-29.5-37.3-5.6-9.5-14.6-26.7-14-26.7 0.3 0 3.9 2.2 8.1 4.9z"></path>
	</g>
</svg></svg></g></g><defs><clipPath id="SvgjsClipPath1048"><rect width="1000" height="1000" x="0" y="0" rx="350" ry="350"></rect></clipPath></defs></svg></g></svg>